# xmcd
#
# Track frame offsets:
#	150
#	33759
#	45095
#	60787
#	78588
#	97167
#	107549
#	132461
#
# Disc length: 1960 seconds
#
# Revision: 1
# Processed by: cddbd v1.5.2PL0 Copyright (c) Steve Scherf et al.
# Submitted via: audiograbber 1.83.01
#
DISCID=5707a608
DTITLE=Mouzakis - Magic Tube
DYEAR=1900
DGENRE=Progressive Rock
TTITLE0=Magic Tube
TTITLE1=Rock Around The Clock
TTITLE2=White Horse
TTITLE3=Love Everyday
TTITLE4=Long Haired Bombardier
TTITLE5=Party Ball
TTITLE6=Lady
TTITLE7=Both Do Fine
EXTD=
EXTT0=
EXTT1=
EXTT2=
EXTT3=
EXTT4=
EXTT5=
EXTT6=
EXTT7=
PLAYORDER=
